<?xml version="1.0" encoding="utf-8"?>
<!-- Generator: Adobe Illustrator 21.0.0, SVG Export Plug-In . SVG Version: 6.00 Build 0)  -->
<svg version="1.1" id="Layer_1" xmlns="http://www.w3.org/2000/svg" xmlns:xlink="http://www.w3.org/1999/xlink" x="0px" y="0px"
	 viewBox="0 0 32 32" style="enable-background:new 0 0 32 32;" xml:space="preserve">
<title>cloud-sun-snow</title>
<path d="M6.6,15.6L6.6,15.6c-0.1-0.4-0.1-0.7-0.1-1.1c0-3.3,2.7-6,6-6c2.3,0,4.4,1.3,5.4,3.3c0.8-0.8,1.9-1.3,3.1-1.3
	c2.5,0,4.5,2,4.5,4.5c0,0.2,0,0.4,0,0.6l0,0c1.7,0.4,3,2,3,3.9c0,2.2-1.8,4-4,4h-17c-2.2,0-4-1.8-4-4C3.5,17.6,4.8,16,6.6,15.6z
	 M24.5,10.7c0-0.2,0-0.5,0-0.7c0-3-2.5-5.5-5.5-5.5c-2.2,0-4.1,1.3-5,3.2l0,0c-0.5-0.1-1-0.2-1.5-0.2c-3.9,0-7,3.1-7,7
	c0,0.1,0,0.3,0,0.4c-1.8,0.8-3,2.5-3,4.6c0,2.8,2.2,5,5,5h17c2.8,0,5-2.2,5-5c0-2.1-1.2-3.8-3-4.6C26.5,13.2,25.7,11.7,24.5,10.7
	L24.5,10.7L24.5,10.7L24.5,10.7z M23.5,10.1L23.5,10.1L23.5,10.1c-0.8-0.4-1.6-0.6-2.5-0.6c-1.1,0-2,0.3-2.9,0.8
	C17.3,9.3,16.2,8.4,15,8c0.7-1.5,2.3-2.5,4-2.5C21.5,5.5,23.5,7.5,23.5,10.1C23.5,10,23.5,10.1,23.5,10.1L23.5,10.1z M9.5,26.5
	c-0.6,0-1,0.4-1,1c0,0.6,0.4,1,1,1c0.6,0,1-0.4,1-1C10.5,26.9,10.1,26.5,9.5,26.5L9.5,26.5z M12.5,29.5c-0.6,0-1,0.4-1,1
	c0,0.6,0.4,1,1,1c0.6,0,1-0.4,1-1C13.5,29.9,13.1,29.5,12.5,29.5L12.5,29.5z M16.5,26.5c-0.6,0-1,0.4-1,1c0,0.6,0.4,1,1,1
	c0.6,0,1-0.4,1-1C17.5,26.9,17.1,26.5,16.5,26.5L16.5,26.5z M19.5,29.5c-0.6,0-1,0.4-1,1c0,0.6,0.4,1,1,1c0.6,0,1-0.4,1-1
	C20.5,29.9,20.1,29.5,19.5,29.5L19.5,29.5z M22.5,26.5c-0.6,0-1,0.4-1,1c0,0.6,0.4,1,1,1c0.6,0,1-0.4,1-1
	C23.5,26.9,23.1,26.5,22.5,26.5L22.5,26.5z M19,0.5c-0.3,0-0.5,0.2-0.5,0.5v2c0,0.3,0.2,0.5,0.5,0.5c0.3,0,0.5-0.2,0.5-0.5V1
	C19.5,0.7,19.3,0.5,19,0.5C19,0.5,19,0.5,19,0.5z M25.7,3.3c-0.2-0.2-0.5-0.2-0.7,0l-1.4,1.4c-0.2,0.2-0.2,0.5,0,0.7
	c0.2,0.2,0.5,0.2,0.7,0L25.7,4C25.9,3.8,25.9,3.5,25.7,3.3C25.7,3.3,25.7,3.3,25.7,3.3z M28.5,10c0-0.3-0.2-0.5-0.5-0.5h-2
	c-0.3,0-0.5,0.2-0.5,0.5c0,0.3,0.2,0.5,0.5,0.5h2C28.3,10.5,28.5,10.3,28.5,10L28.5,10z M12.3,3.3c-0.2,0.2-0.2,0.5,0,0.7l1.4,1.4
	c0.2,0.2,0.5,0.2,0.7,0c0.2-0.2,0.2-0.5,0-0.7L13,3.3C12.8,3.1,12.5,3.1,12.3,3.3C12.3,3.3,12.3,3.3,12.3,3.3z"/>
</svg>
