<?xml version="1.0" encoding="utf-8"?>
<!-- Generator: Adobe Illustrator 21.0.0, SVG Export Plug-In . SVG Version: 6.00 Build 0)  -->
<svg version="1.1" id="Layer_1" xmlns="http://www.w3.org/2000/svg" xmlns:xlink="http://www.w3.org/1999/xlink" x="0px" y="0px"
	 viewBox="0 0 32 32" style="enable-background:new 0 0 32 32;" xml:space="preserve">
<title>cloud-snowflakes</title>
<path d="M6.6,12.1c-1.8,0.4-3.1,2-3.1,3.9c0,2.2,1.8,4,4,4h17c2.2,0,4-1.8,4-4c0-1.9-1.3-3.5-3-3.9l0,0c0-0.2,0-0.4,0-0.6
	C25.5,9,23.5,7,21,7c-1.2,0-2.3,0.5-3.1,1.3c-1-1.9-3-3.3-5.4-3.3c-3.3,0-6,2.7-6,6C6.5,11.4,6.5,11.7,6.6,12.1
	C6.6,12.1,6.6,12.1,6.6,12.1z M26.5,11.4c1.8,0.8,3,2.5,3,4.6c0,2.8-2.2,5-5,5h-17c-2.8,0-5-2.2-5-5c0-2.1,1.2-3.8,3-4.6l0,0
	c0-0.1,0-0.3,0-0.4c0-3.9,3.1-7,7-7c2.3,0,4.3,1.1,5.6,2.8C19,6.3,19.9,6,21,6C24,6,26.5,8.4,26.5,11.4L26.5,11.4L26.5,11.4
	L26.5,11.4z M10.5,23.6v-1.1c0-0.3-0.2-0.5-0.5-0.5c-0.3,0-0.5,0.2-0.5,0.5v1.1l-1-0.6c-0.2-0.1-0.5,0-0.7,0.2
	c-0.1,0.2-0.1,0.5,0.2,0.7l1,0.6l-1,0.6c-0.2,0.1-0.3,0.5-0.2,0.7C8,26,8.3,26.1,8.5,25.9l1-0.6v1.1c0,0.3,0.2,0.5,0.5,0.5
	c0.3,0,0.5-0.2,0.5-0.5v-1.1l1,0.6c0.2,0.1,0.5,0,0.7-0.2c0.1-0.2,0.1-0.5-0.2-0.7l-1-0.6l1-0.6c0.2-0.1,0.3-0.5,0.2-0.7
	c-0.1-0.2-0.4-0.3-0.7-0.2L10.5,23.6z M22.5,23.6v-1.1c0-0.3-0.2-0.5-0.5-0.5c-0.3,0-0.5,0.2-0.5,0.5v1.1l-1-0.6
	c-0.2-0.1-0.5,0-0.7,0.2c-0.1,0.2-0.1,0.5,0.2,0.7l1,0.6l-1,0.6c-0.2,0.1-0.3,0.5-0.2,0.7c0.1,0.2,0.4,0.3,0.7,0.2l1-0.6v1.1
	c0,0.3,0.2,0.5,0.5,0.5c0.3,0,0.5-0.2,0.5-0.5v-1.1l1,0.6c0.2,0.1,0.5,0,0.7-0.2c0.1-0.2,0.1-0.5-0.2-0.7l-1-0.6l1-0.6
	c0.2-0.1,0.3-0.5,0.2-0.7c-0.1-0.2-0.4-0.3-0.7-0.2L22.5,23.6z M16.5,24.6v-1.1c0-0.3-0.2-0.5-0.5-0.5c-0.3,0-0.5,0.2-0.5,0.5v1.1
	l-1-0.6c-0.2-0.1-0.5,0-0.7,0.2c-0.1,0.2-0.1,0.5,0.2,0.7l1,0.6l-1,0.6c-0.2,0.1-0.3,0.5-0.2,0.7c0.1,0.2,0.4,0.3,0.7,0.2l1-0.6v1.1
	c0,0.3,0.2,0.5,0.5,0.5c0.3,0,0.5-0.2,0.5-0.5v-1.1l1,0.6c0.2,0.1,0.5,0,0.7-0.2c0.1-0.2,0.1-0.5-0.2-0.7l-1-0.6l1-0.6
	c0.2-0.1,0.3-0.5,0.2-0.7c-0.1-0.2-0.4-0.3-0.7-0.2L16.5,24.6z"/>
</svg>
