<?xml version="1.0" encoding="utf-8"?>
<!-- Generator: Adobe Illustrator 21.0.0, SVG Export Plug-In . SVG Version: 6.00 Build 0)  -->
<svg version="1.1" id="Layer_1" xmlns="http://www.w3.org/2000/svg" xmlns:xlink="http://www.w3.org/1999/xlink" x="0px" y="0px"
	 viewBox="0 0 32 32" style="enable-background:new 0 0 32 32;" xml:space="preserve">
<title>cloud-lightning</title>
<path d="M16.6,18h2.5L13,24.1l1.5-4.1h-2.6l2.3-6h3.9C18.1,14,16.6,18,16.6,18z M18.5,20l3-3H18l1.5-4h-6l-2.6,7H7.5
	c-2.2,0-4-1.8-4-4c0-1.9,1.3-3.5,3.1-3.9l0,0c-0.1-0.4-0.1-0.7-0.1-1.1c0-3.3,2.7-6,6-6c2.3,0,4.4,1.3,5.4,3.3C18.7,7.5,19.8,7,21,7
	c2.5,0,4.5,2,4.5,4.5c0,0.2,0,0.4,0,0.6l0,0c1.7,0.4,3,2,3,3.9c0,2.2-1.8,4-4,4C24.5,20,18.5,20,18.5,20z M17.5,21h7
	c2.8,0,5-2.2,5-5c0-2.1-1.2-3.8-3-4.6l0,0C26.5,8.4,24,6,21,6c-1.1,0-2,0.3-2.9,0.8C16.8,5.1,14.8,4,12.5,4c-3.9,0-7,3.1-7,7
	c0,0.1,0,0.3,0,0.4l0,0c-1.8,0.8-3,2.5-3,4.6c0,2.8,2.2,5,5,5H13l-2.5,7L17.5,21z"/>
</svg>
