<?xml version="1.0" encoding="utf-8"?>
<!-- Generator: Adobe Illustrator 21.0.0, SVG Export Plug-In . SVG Version: 6.00 Build 0)  -->
<svg version="1.1" id="Layer_1" xmlns="http://www.w3.org/2000/svg" xmlns:xlink="http://www.w3.org/1999/xlink" x="0px" y="0px"
	 viewBox="0 0 32 32" style="enable-background:new 0 0 32 32;" xml:space="preserve">
<title>cloud-moon-rain</title>
<path d="M6.6,15.6L6.6,15.6L6.6,15.6c-0.1-0.4-0.1-0.7-0.1-1.1c0-3.3,2.7-6,6-6c2.3,0,4.4,1.3,5.4,3.3c0.8-0.8,1.9-1.3,3.1-1.3
	c2.5,0,4.5,2,4.5,4.5c0,0.2,0,0.4,0,0.6l0,0c1.7,0.4,3,2,3,3.9c0,2.2-1.8,4-4,4h-17c-2.2,0-4-1.8-4-4C3.5,17.6,4.8,16,6.6,15.6z
	 M24.8,11c0.8-0.7,1.3-1.6,1.6-2.7c0.1-0.4,0.1-0.7,0.2-1.1c-0.5,0.2-1,0.3-1.5,0.3c-2.5,0-4.5-2-4.5-4.5c0-0.5,0.1-1,0.3-1.5
	c-0.4,0-0.7,0.1-1.1,0.2c-2.4,0.6-4.2,2.8-4.2,5.3c0,0.4,0,0.8,0.1,1.2c-0.9-0.5-2-0.7-3.1-0.7c-3.9,0-7,3.1-7,7c0,0.1,0,0.3,0,0.4
	c-1.8,0.8-3,2.5-3,4.6c0,2.8,2.2,5,5,5h17c2.8,0,5-2.2,5-5c0-2.1-1.2-3.8-3-4.6C26.5,13.4,25.8,12,24.8,11L24.8,11L24.8,11L24.8,11z
	 M24,10.4L24,10.4L24,10.4c-0.9-0.6-1.9-0.9-3-0.9c-1.1,0-2,0.3-2.9,0.8c-0.3-0.4-0.7-0.8-1-1.1c-0.4-0.7-0.6-1.4-0.6-2.2
	c0-2,1.3-3.6,3-4.2c0,0.1,0,0.2,0,0.2c0,3,2.5,5.5,5.5,5.5c0.1,0,0.2,0,0.2,0C25,9.2,24.5,9.9,24,10.4L24,10.4z M10,25.5
	c-0.3,0-0.5,0.2-0.5,0.5v2c0,0.3,0.2,0.5,0.5,0.5c0.3,0,0.5-0.2,0.5-0.5v-2C10.5,25.7,10.3,25.5,10,25.5L10,25.5z M13,27.5
	c-0.3,0-0.5,0.2-0.5,0.5v2c0,0.3,0.2,0.5,0.5,0.5c0.3,0,0.5-0.2,0.5-0.5v-2C13.5,27.7,13.3,27.5,13,27.5L13,27.5z M16,25.5
	c-0.3,0-0.5,0.2-0.5,0.5v2c0,0.3,0.2,0.5,0.5,0.5c0.3,0,0.5-0.2,0.5-0.5v-2C16.5,25.7,16.3,25.5,16,25.5L16,25.5z M19,27.5
	c-0.3,0-0.5,0.2-0.5,0.5v2c0,0.3,0.2,0.5,0.5,0.5c0.3,0,0.5-0.2,0.5-0.5v-2C19.5,27.7,19.3,27.5,19,27.5L19,27.5z M22,25.5
	c-0.3,0-0.5,0.2-0.5,0.5v2c0,0.3,0.2,0.5,0.5,0.5c0.3,0,0.5-0.2,0.5-0.5v-2C22.5,25.7,22.3,25.5,22,25.5L22,25.5z"/>
</svg>
