<?xml version="1.0" encoding="utf-8"?>
<!-- Generator: Adobe Illustrator 21.0.0, SVG Export Plug-In . SVG Version: 6.00 Build 0)  -->
<svg version="1.1" id="Layer_1" xmlns="http://www.w3.org/2000/svg" xmlns:xlink="http://www.w3.org/1999/xlink" x="0px" y="0px"
	 viewBox="0 0 32 32" style="enable-background:new 0 0 32 32;" xml:space="preserve">
<title>cloud-sun-rain</title>
<path d="M6.6,16.1L6.6,16.1c-0.1-0.4-0.1-0.7-0.1-1.1c0-3.3,2.7-6,6-6c2.3,0,4.4,1.3,5.4,3.3c0.8-0.8,1.9-1.3,3.1-1.3
	c2.5,0,4.5,2,4.5,4.5c0,0.2,0,0.4,0,0.6l0,0c1.7,0.4,3,2,3,3.9c0,2.2-1.8,4-4,4h-17c-2.2,0-4-1.8-4-4C3.5,18.1,4.8,16.5,6.6,16.1z
	 M24.5,11.2c0-0.2,0-0.5,0-0.7C24.5,7.5,22,5,19,5c-2.2,0-4.1,1.3-5,3.2l0,0C13.5,8.1,13,8,12.5,8c-3.9,0-7,3.1-7,7
	c0,0.1,0,0.3,0,0.4c-1.8,0.8-3,2.5-3,4.6c0,2.8,2.2,5,5,5h17c2.8,0,5-2.2,5-5c0-2.1-1.2-3.8-3-4.6C26.5,13.7,25.7,12.2,24.5,11.2
	L24.5,11.2L24.5,11.2L24.5,11.2z M23.5,10.6L23.5,10.6L23.5,10.6C22.7,10.2,21.9,10,21,10c-1.1,0-2,0.3-2.9,0.8
	c-0.8-1.1-1.9-1.9-3.1-2.4C15.7,7,17.3,6,19,6C21.5,6,23.5,8,23.5,10.6C23.5,10.5,23.5,10.6,23.5,10.6L23.5,10.6z M10,26
	c-0.3,0-0.5,0.2-0.5,0.5v2c0,0.3,0.2,0.5,0.5,0.5c0.3,0,0.5-0.2,0.5-0.5v-2C10.5,26.2,10.3,26,10,26L10,26z M13,28
	c-0.3,0-0.5,0.2-0.5,0.5v2c0,0.3,0.2,0.5,0.5,0.5c0.3,0,0.5-0.2,0.5-0.5v-2C13.5,28.2,13.3,28,13,28L13,28z M16,26
	c-0.3,0-0.5,0.2-0.5,0.5v2c0,0.3,0.2,0.5,0.5,0.5c0.3,0,0.5-0.2,0.5-0.5v-2C16.5,26.2,16.3,26,16,26L16,26z M19,28
	c-0.3,0-0.5,0.2-0.5,0.5v2c0,0.3,0.2,0.5,0.5,0.5c0.3,0,0.5-0.2,0.5-0.5v-2C19.5,28.2,19.3,28,19,28L19,28z M22,26
	c-0.3,0-0.5,0.2-0.5,0.5v2c0,0.3,0.2,0.5,0.5,0.5c0.3,0,0.5-0.2,0.5-0.5v-2C22.5,26.2,22.3,26,22,26L22,26z M19,1
	c-0.3,0-0.5,0.2-0.5,0.5v2C18.5,3.8,18.7,4,19,4c0.3,0,0.5-0.2,0.5-0.5v-2C19.5,1.2,19.3,1,19,1C19,1,19,1,19,1z M25.7,3.8
	c-0.2-0.2-0.5-0.2-0.7,0l-1.4,1.4c-0.2,0.2-0.2,0.5,0,0.7c0.2,0.2,0.5,0.2,0.7,0l1.4-1.4C25.9,4.3,25.9,4,25.7,3.8
	C25.7,3.8,25.7,3.8,25.7,3.8z M28.5,10.5c0-0.3-0.2-0.5-0.5-0.5h-2c-0.3,0-0.5,0.2-0.5,0.5c0,0.3,0.2,0.5,0.5,0.5h2
	C28.3,11,28.5,10.8,28.5,10.5L28.5,10.5z M12.3,3.8c-0.2,0.2-0.2,0.5,0,0.7l1.4,1.4c0.2,0.2,0.5,0.2,0.7,0c0.2-0.2,0.2-0.5,0-0.7
	L13,3.8C12.8,3.6,12.5,3.6,12.3,3.8C12.3,3.8,12.3,3.8,12.3,3.8z"/>
</svg>
