<?xml version="1.0" encoding="utf-8"?>
<!-- Generator: Adobe Illustrator 21.0.0, SVG Export Plug-In . SVG Version: 6.00 Build 0)  -->
<svg version="1.1" id="Layer_1" xmlns="http://www.w3.org/2000/svg" xmlns:xlink="http://www.w3.org/1999/xlink" x="0px" y="0px"
	 viewBox="0 0 32 32" style="enable-background:new 0 0 32 32;" xml:space="preserve">
<title>cloud-moon-snow</title>
<path d="M6.6,15.1L6.6,15.1c-0.1-0.4-0.1-0.7-0.1-1.1c0-3.3,2.7-6,6-6c2.3,0,4.4,1.3,5.4,3.3c0.8-0.8,1.9-1.3,3.1-1.3
	c2.5,0,4.5,2,4.5,4.5c0,0.2,0,0.4,0,0.6l0,0c1.7,0.4,3,2,3,3.9c0,2.2-1.8,4-4,4h-17c-2.2,0-4-1.8-4-4C3.5,17.1,4.8,15.5,6.6,15.1z
	 M24.8,10.5c0.8-0.7,1.3-1.6,1.6-2.7c0.1-0.4,0.1-0.7,0.2-1.1C26,6.9,25.5,7,25,7c-2.5,0-4.5-2-4.5-4.5c0-0.5,0.1-1,0.3-1.5
	c-0.4,0-0.7,0.1-1.1,0.2c-2.4,0.6-4.2,2.8-4.2,5.3c0,0.4,0,0.8,0.1,1.2c-0.9-0.5-2-0.7-3.1-0.7c-3.9,0-7,3.1-7,7c0,0.1,0,0.3,0,0.4
	c-1.8,0.8-3,2.5-3,4.6c0,2.8,2.2,5,5,5h17c2.8,0,5-2.2,5-5c0-2.1-1.2-3.8-3-4.6C26.5,12.9,25.8,11.5,24.8,10.5L24.8,10.5L24.8,10.5
	L24.8,10.5z M24,9.9L24,9.9L24,9.9C23.1,9.3,22.1,9,21,9c-1.1,0-2,0.3-2.9,0.8c-0.3-0.4-0.7-0.8-1-1.1c-0.4-0.7-0.6-1.4-0.6-2.2
	c0-2,1.3-3.6,3-4.2c0,0.1,0,0.2,0,0.2C19.5,5.5,22,8,25,8c0.1,0,0.2,0,0.2,0C25,8.7,24.5,9.4,24,9.9L24,9.9z M9.5,26
	c-0.6,0-1,0.4-1,1c0,0.6,0.4,1,1,1c0.6,0,1-0.4,1-1C10.5,26.4,10.1,26,9.5,26L9.5,26z M12.5,29c-0.6,0-1,0.4-1,1c0,0.6,0.4,1,1,1
	c0.6,0,1-0.4,1-1C13.5,29.4,13.1,29,12.5,29L12.5,29z M16.5,26c-0.6,0-1,0.4-1,1c0,0.6,0.4,1,1,1c0.6,0,1-0.4,1-1
	C17.5,26.4,17.1,26,16.5,26L16.5,26z M19.5,29c-0.6,0-1,0.4-1,1c0,0.6,0.4,1,1,1c0.6,0,1-0.4,1-1C20.5,29.4,20.1,29,19.5,29L19.5,29
	z M22.5,26c-0.6,0-1,0.4-1,1c0,0.6,0.4,1,1,1c0.6,0,1-0.4,1-1C23.5,26.4,23.1,26,22.5,26L22.5,26z"/>
</svg>
