<?xml version="1.0" encoding="utf-8"?>
<!-- Generator: Adobe Illustrator 21.0.0, SVG Export Plug-In . SVG Version: 6.00 Build 0)  -->
<svg version="1.1" id="Layer_1" xmlns="http://www.w3.org/2000/svg" xmlns:xlink="http://www.w3.org/1999/xlink" x="0px" y="0px"
	 viewBox="0 0 32 32" style="enable-background:new 0 0 32 32;" xml:space="preserve">
<title>cloud-moon</title>
<path d="M24.8,14L24.8,14c1,1,1.7,2.4,1.7,3.9c1.8,0.8,3,2.5,3,4.6c0,2.8-2.2,5-5,5h-17c-2.8,0-5-2.2-5-5c0-2.1,1.2-3.8,3-4.6
	c0-0.1,0-0.3,0-0.4c0-3.9,3.1-7,7-7c1.1,0,2.2,0.3,3.1,0.7c-0.1-0.4-0.1-0.8-0.1-1.2c0-2.6,1.8-4.7,4.2-5.3c0.3-0.1,0.7-0.2,1.1-0.2
	c-0.2,0.5-0.3,1-0.3,1.5c0,2.5,2,4.5,4.5,4.5c0.5,0,1-0.1,1.5-0.3c0,0.4-0.1,0.7-0.2,1.1C26.1,12.4,25.5,13.3,24.8,14L24.8,14z
	 M24,13.4c0.6-0.5,1-1.1,1.3-1.9c-0.1,0-0.2,0-0.2,0c-3,0-5.5-2.5-5.5-5.5c0-0.1,0-0.2,0-0.2c-1.8,0.6-3,2.3-3,4.2
	c0,0.8,0.2,1.6,0.6,2.2c0.4,0.3,0.7,0.7,1,1.1c0.8-0.5,1.7-0.8,2.8-0.8S23.1,12.8,24,13.4L24,13.4L24,13.4z"/>
</svg>
