<?xml version="1.0" encoding="utf-8"?>
<!-- Generator: Adobe Illustrator 21.0.0, SVG Export Plug-In . SVG Version: 6.00 Build 0)  -->
<svg version="1.1" id="Layer_1" xmlns="http://www.w3.org/2000/svg" xmlns:xlink="http://www.w3.org/1999/xlink" x="0px" y="0px"
	 viewBox="0 0 32 32" style="enable-background:new 0 0 32 32;" xml:space="preserve">
<title>cloud-raindrops</title>
<path d="M6.6,11.6c-1.8,0.4-3.1,2-3.1,3.9c0,2.2,1.8,4,4,4h17c2.2,0,4-1.8,4-4c0-1.9-1.3-3.5-3-3.9l0,0c0-0.2,0-0.4,0-0.6
	c0-2.5-2-4.5-4.5-4.5c-1.2,0-2.3,0.5-3.1,1.3c-1-1.9-3-3.3-5.4-3.3c-3.3,0-6,2.7-6,6C6.5,10.9,6.5,11.2,6.6,11.6
	C6.6,11.6,6.6,11.6,6.6,11.6z M26.5,10.9c1.8,0.8,3,2.5,3,4.6c0,2.8-2.2,5-5,5h-17c-2.8,0-5-2.2-5-5c0-2.1,1.2-3.8,3-4.6l0,0
	c0-0.1,0-0.3,0-0.4c0-3.9,3.1-7,7-7c2.3,0,4.3,1.1,5.6,2.8C19,5.8,19.9,5.5,21,5.5C24,5.5,26.5,7.9,26.5,10.9L26.5,10.9L26.5,10.9
	L26.5,10.9z M6.5,25.4L6.5,25.4c0,1.1,0.8,2.1,2.5,2.1s2.5-1.1,2.5-2.1c0-1.4-2.5-3.9-2.5-3.9S6.5,23.9,6.5,25.4z M7.5,25.3
	C7.5,24.6,9,23,9,23s1.5,1.6,1.5,2.3c0,0.8-0.7,1.2-1.5,1.2S7.5,26.2,7.5,25.3L7.5,25.3z M13.5,26.4L13.5,26.4
	c0,1.1,0.8,2.1,2.5,2.1s2.5-1.1,2.5-2.1c0-1.4-2.5-3.9-2.5-3.9S13.5,24.9,13.5,26.4z M14.5,26.3c0-0.7,1.5-2.3,1.5-2.3
	s1.5,1.6,1.5,2.3c0,0.8-0.7,1.2-1.5,1.2S14.5,27.2,14.5,26.3C14.5,26.3,14.5,26.3,14.5,26.3z M20.5,25.4L20.5,25.4
	c0,1.1,0.8,2.1,2.5,2.1s2.5-1.1,2.5-2.1c0-1.4-2.5-3.9-2.5-3.9S20.5,23.9,20.5,25.4z M21.5,25.3c0-0.7,1.5-2.3,1.5-2.3
	s1.5,1.6,1.5,2.3c0,0.8-0.7,1.2-1.5,1.2S21.5,26.2,21.5,25.3L21.5,25.3z"/>
</svg>
