<?xml version="1.0" encoding="utf-8"?>
<!-- Generator: Adobe Illustrator 21.0.0, SVG Export Plug-In . SVG Version: 6.00 Build 0)  -->
<svg version="1.1" id="Layer_1" xmlns="http://www.w3.org/2000/svg" xmlns:xlink="http://www.w3.org/1999/xlink" x="0px" y="0px"
	 viewBox="0 0 32 32" style="enable-background:new 0 0 32 32;" xml:space="preserve">
<title>cloud-moon-raindrops</title>
<path d="M6.6,14.6L6.6,14.6c-0.1-0.4-0.1-0.7-0.1-1.1c0-3.3,2.7-6,6-6c2.3,0,4.4,1.3,5.4,3.3c0.8-0.8,1.9-1.3,3.1-1.3
	c2.5,0,4.5,2,4.5,4.5c0,0.2,0,0.4,0,0.6l0,0c1.7,0.4,3,2,3,3.9c0,2.2-1.8,4-4,4h-17c-2.2,0-4-1.8-4-4C3.5,16.6,4.8,15,6.6,14.6z
	 M24.8,10c0.8-0.7,1.3-1.6,1.6-2.7c0.1-0.4,0.1-0.7,0.2-1.1c-0.5,0.2-1,0.3-1.5,0.3c-2.5,0-4.5-2-4.5-4.5c0-0.5,0.1-1,0.3-1.5
	c-0.4,0-0.7,0.1-1.1,0.2c-2.4,0.6-4.2,2.8-4.2,5.3c0,0.4,0,0.8,0.1,1.2c-0.9-0.5-2-0.7-3.1-0.7c-3.9,0-7,3.1-7,7c0,0.1,0,0.3,0,0.4
	c-1.8,0.8-3,2.5-3,4.6c0,2.8,2.2,5,5,5h17c2.8,0,5-2.2,5-5c0-2.1-1.2-3.8-3-4.6C26.5,12.4,25.8,11,24.8,10L24.8,10L24.8,10L24.8,10z
	 M24,9.4L24,9.4L24,9.4c-0.9-0.6-1.9-0.9-3-0.9c-1.1,0-2,0.3-2.9,0.8c-0.3-0.4-0.7-0.8-1-1.1c-0.4-0.7-0.6-1.4-0.6-2.2
	c0-2,1.3-3.6,3-4.2c0,0.1,0,0.2,0,0.2c0,3,2.5,5.5,5.5,5.5c0.1,0,0.2,0,0.2,0C25,8.2,24.5,8.9,24,9.4L24,9.4z M6.5,28.4L6.5,28.4
	c0,1.1,0.8,2.1,2.5,2.1s2.5-1.1,2.5-2.1c0-1.4-2.5-3.9-2.5-3.9S6.5,26.9,6.5,28.4z M7.5,28.3C7.5,27.6,9,26,9,26s1.5,1.6,1.5,2.3
	c0,0.8-0.7,1.2-1.5,1.2S7.5,29.2,7.5,28.3L7.5,28.3z M13.5,29.4L13.5,29.4c0,1.1,0.8,2.1,2.5,2.1s2.5-1.1,2.5-2.1
	c0-1.4-2.5-3.9-2.5-3.9S13.5,27.9,13.5,29.4z M14.5,29.3c0-0.7,1.5-2.3,1.5-2.3s1.5,1.6,1.5,2.3c0,0.8-0.7,1.2-1.5,1.2
	S14.5,30.2,14.5,29.3C14.5,29.3,14.5,29.3,14.5,29.3z M20.5,28.4L20.5,28.4c0,1.1,0.8,2.1,2.5,2.1s2.5-1.1,2.5-2.1
	c0-1.4-2.5-3.9-2.5-3.9S20.5,26.9,20.5,28.4z M21.5,28.3c0-0.7,1.5-2.3,1.5-2.3s1.5,1.6,1.5,2.3c0,0.8-0.7,1.2-1.5,1.2
	S21.5,29.2,21.5,28.3L21.5,28.3z"/>
</svg>
