<?xml version="1.0" encoding="utf-8"?>
<!-- Generator: Adobe Illustrator 21.0.0, SVG Export Plug-In . SVG Version: 6.00 Build 0)  -->
<svg version="1.1" id="Layer_1" xmlns="http://www.w3.org/2000/svg" xmlns:xlink="http://www.w3.org/1999/xlink" x="0px" y="0px"
	 viewBox="0 0 32 32" style="enable-background:new 0 0 32 32;" xml:space="preserve">
<title>cloud-rain</title>
<path d="M6.6,12.6c-1.8,0.4-3.1,2-3.1,3.9c0,2.2,1.8,4,4,4h17c2.2,0,4-1.8,4-4c0-1.9-1.3-3.5-3-3.9l0,0c0-0.2,0-0.4,0-0.6
	c0-2.5-2-4.5-4.5-4.5c-1.2,0-2.3,0.5-3.1,1.3c-1-1.9-3-3.3-5.4-3.3c-3.3,0-6,2.7-6,6C6.5,11.9,6.5,12.2,6.6,12.6L6.6,12.6
	C6.6,12.6,6.6,12.6,6.6,12.6z M26.5,11.9c1.8,0.8,3,2.5,3,4.6c0,2.8-2.2,5-5,5h-17c-2.8,0-5-2.2-5-5c0-2.1,1.2-3.8,3-4.6l0,0
	c0-0.1,0-0.3,0-0.4c0-3.9,3.1-7,7-7c2.3,0,4.3,1.1,5.6,2.8C19,6.8,19.9,6.5,21,6.5C24,6.5,26.5,8.9,26.5,11.9L26.5,11.9L26.5,11.9
	L26.5,11.9z M10,22.5c-0.3,0-0.5,0.2-0.5,0.5v2c0,0.3,0.2,0.5,0.5,0.5c0.3,0,0.5-0.2,0.5-0.5v-2C10.5,22.7,10.3,22.5,10,22.5
	L10,22.5z M13,24.5c-0.3,0-0.5,0.2-0.5,0.5v2c0,0.3,0.2,0.5,0.5,0.5c0.3,0,0.5-0.2,0.5-0.5v-2C13.5,24.7,13.3,24.5,13,24.5L13,24.5z
	 M16,22.5c-0.3,0-0.5,0.2-0.5,0.5v2c0,0.3,0.2,0.5,0.5,0.5c0.3,0,0.5-0.2,0.5-0.5v-2C16.5,22.7,16.3,22.5,16,22.5L16,22.5z M19,24.5
	c-0.3,0-0.5,0.2-0.5,0.5v2c0,0.3,0.2,0.5,0.5,0.5c0.3,0,0.5-0.2,0.5-0.5v-2C19.5,24.7,19.3,24.5,19,24.5L19,24.5z M22,22.5
	c-0.3,0-0.5,0.2-0.5,0.5v2c0,0.3,0.2,0.5,0.5,0.5c0.3,0,0.5-0.2,0.5-0.5v-2C22.5,22.7,22.3,22.5,22,22.5L22,22.5z"/>
</svg>
