<?xml version="1.0" encoding="utf-8"?>
<!-- Generator: Adobe Illustrator 21.0.0, SVG Export Plug-In . SVG Version: 6.00 Build 0)  -->
<svg version="1.1" id="Layer_1" xmlns="http://www.w3.org/2000/svg" xmlns:xlink="http://www.w3.org/1999/xlink" x="0px" y="0px"
	 viewBox="0 0 32 32" style="enable-background:new 0 0 32 32;" xml:space="preserve">
<title>cloud-sun</title>
<path d="M6.6,19.1L6.6,19.1c-0.1-0.4-0.1-0.7-0.1-1.1c0-3.3,2.7-6,6-6c2.3,0,4.4,1.3,5.4,3.3c0.8-0.8,1.9-1.3,3.1-1.3
	c2.5,0,4.5,2,4.5,4.5c0,0.2,0,0.4,0,0.6l0,0c1.7,0.4,3,2,3,3.9c0,2.2-1.8,4-4,4h-17c-2.2,0-4-1.8-4-4C3.5,21.1,4.8,19.5,6.6,19.1z
	 M24.5,14.2c0-0.2,0-0.5,0-0.7c0-3-2.5-5.5-5.5-5.5c-2.2,0-4.1,1.3-5,3.2l0,0c-0.5-0.1-1-0.2-1.5-0.2c-3.9,0-7,3.1-7,7
	c0,0.1,0,0.3,0,0.4c-1.8,0.8-3,2.5-3,4.6c0,2.8,2.2,5,5,5h17c2.8,0,5-2.2,5-5c0-2.1-1.2-3.8-3-4.6C26.5,16.7,25.7,15.2,24.5,14.2
	L24.5,14.2L24.5,14.2L24.5,14.2z M23.5,13.6L23.5,13.6L23.5,13.6C22.7,13.2,21.9,13,21,13c-1.1,0-2,0.3-2.9,0.8
	c-0.8-1.1-1.9-1.9-3.1-2.4C15.7,10,17.3,9,19,9C21.5,9,23.5,11,23.5,13.6C23.5,13.5,23.5,13.6,23.5,13.6L23.5,13.6z M19,4
	c-0.3,0-0.5,0.2-0.5,0.5v2C18.5,6.8,18.7,7,19,7c0.3,0,0.5-0.2,0.5-0.5v-2C19.5,4.2,19.3,4,19,4C19,4,19,4,19,4z M25.7,6.8
	c-0.2-0.2-0.5-0.2-0.7,0l-1.4,1.4c-0.2,0.2-0.2,0.5,0,0.7c0.2,0.2,0.5,0.2,0.7,0l1.4-1.4C25.9,7.3,25.9,7,25.7,6.8
	C25.7,6.8,25.7,6.8,25.7,6.8z M28.5,13.5c0-0.3-0.2-0.5-0.5-0.5h-2c-0.3,0-0.5,0.2-0.5,0.5c0,0.3,0.2,0.5,0.5,0.5h2
	C28.3,14,28.5,13.8,28.5,13.5L28.5,13.5z M12.3,6.8c-0.2,0.2-0.2,0.5,0,0.7l1.4,1.4c0.2,0.2,0.5,0.2,0.7,0c0.2-0.2,0.2-0.5,0-0.7
	L13,6.8C12.8,6.6,12.5,6.6,12.3,6.8C12.3,6.8,12.3,6.8,12.3,6.8z"/>
</svg>
