<?xml version="1.0" encoding="utf-8"?>
<!-- Generator: Adobe Illustrator 21.0.0, SVG Export Plug-In . SVG Version: 6.00 Build 0)  -->
<svg version="1.1" id="Layer_1" xmlns="http://www.w3.org/2000/svg" xmlns:xlink="http://www.w3.org/1999/xlink" x="0px" y="0px"
	 viewBox="0 0 32 32" style="enable-background:new 0 0 32 32;" xml:space="preserve">
<title>cloud-fog</title>
<path d="M2.5,19.9c0-0.1,0-0.3,0-0.4c0-2.1,1.2-3.8,3-4.6l0,0c0-0.1,0-0.3,0-0.4c0-0.1,0-0.3,0-0.4l0,0c0,0,0-0.1,0-0.1
	c0-0.1,0-0.1,0-0.2c0.3-3.5,3.3-6.3,7-6.3c2.3,0,4.3,1.1,5.6,2.8C19,9.8,19.9,9.5,21,9.5c3,0,5.5,2.4,5.5,5.4l0,0
	c1.8,0.8,3,2.5,3,4.6c0,0.1,0,0.3,0,0.4c0,0,0,0.1,0,0.1c0,0.1,0,0.2-0.1,0.2c-0.3,2.4-2.4,4.3-4.9,4.3h-17c-2.5,0-4.6-1.9-4.9-4.3
	c0-0.1-0.1-0.1-0.1-0.2C2.5,20,2.5,19.9,2.5,19.9L2.5,19.9L2.5,19.9z M3.5,19.5h25c0-0.3,0-0.7-0.1-1H3.6
	C3.5,18.8,3.5,19.2,3.5,19.5z M3.6,20.5c0.1,0.4,0.2,0.7,0.4,1l0,0H28c0.2-0.3,0.3-0.6,0.4-1C28.4,20.5,3.6,20.5,3.6,20.5z M8,10.5
	c-0.3,0.3-0.5,0.6-0.7,1l0,0h10.4c-0.2-0.4-0.5-0.7-0.7-1H8L8,10.5z M9.2,9.5h6.6c-0.9-0.6-2.1-1-3.3-1S10.1,8.9,9.2,9.5z M6.9,12.5
	c-0.1,0.3-0.2,0.7-0.3,1l0,0h18.7c-0.1-0.4-0.3-0.7-0.5-1H7C7,12.5,6.9,12.5,6.9,12.5L6.9,12.5C6.9,12.5,6.9,12.5,6.9,12.5z
	 M18.2,11.5h5.7c-0.8-0.6-1.8-1-2.8-1S18.9,10.9,18.2,11.5L18.2,11.5z M6.5,14.5c0,0.3,0,0.7,0.1,1h18.9c0-0.2,0-0.3,0-0.5
	c0-0.2,0-0.3,0-0.5H6.5z M4.9,16.5c-0.3,0.3-0.6,0.6-0.8,1l0,0H28c-0.2-0.4-0.5-0.7-0.8-1c0,0-0.1,0-0.1,0H5
	C5,16.5,4.9,16.5,4.9,16.5L4.9,16.5L4.9,16.5L4.9,16.5z M4.9,22.5c0.7,0.6,1.6,1,2.6,1h17c1,0,1.9-0.4,2.6-1H4.9L4.9,22.5z"/>
</svg>
