<?xml version="1.0" encoding="utf-8"?>
<!-- Generator: Adobe Illustrator 21.0.0, SVG Export Plug-In . SVG Version: 6.00 Build 0)  -->
<svg version="1.1" id="Layer_1" xmlns="http://www.w3.org/2000/svg" xmlns:xlink="http://www.w3.org/1999/xlink" x="0px" y="0px"
	 viewBox="0 0 32 32" style="enable-background:new 0 0 32 32;" xml:space="preserve">
<title>cloud-snow</title>
<path d="M6.6,12.1c-1.8,0.4-3.1,2-3.1,3.9c0,2.2,1.8,4,4,4h17c2.2,0,4-1.8,4-4c0-1.9-1.3-3.5-3-3.9l0,0c0-0.2,0-0.4,0-0.6
	C25.5,9,23.5,7,21,7c-1.2,0-2.3,0.5-3.1,1.3c-1-1.9-3-3.3-5.4-3.3c-3.3,0-6,2.7-6,6C6.5,11.4,6.5,11.7,6.6,12.1L6.6,12.1
	C6.6,12.1,6.6,12.1,6.6,12.1z M26.5,11.4c1.8,0.8,3,2.5,3,4.6c0,2.8-2.2,5-5,5h-17c-2.8,0-5-2.2-5-5c0-2.1,1.2-3.8,3-4.6l0,0
	c0-0.1,0-0.3,0-0.4c0-3.9,3.1-7,7-7c2.3,0,4.3,1.1,5.6,2.8C19,6.3,19.9,6,21,6C24,6,26.5,8.4,26.5,11.4L26.5,11.4L26.5,11.4
	L26.5,11.4z M9.5,23c-0.6,0-1,0.4-1,1c0,0.6,0.4,1,1,1c0.6,0,1-0.4,1-1C10.5,23.4,10.1,23,9.5,23L9.5,23z M12.5,26c-0.6,0-1,0.4-1,1
	c0,0.6,0.4,1,1,1c0.6,0,1-0.4,1-1C13.5,26.4,13.1,26,12.5,26L12.5,26z M16.5,23c-0.6,0-1,0.4-1,1c0,0.6,0.4,1,1,1c0.6,0,1-0.4,1-1
	C17.5,23.4,17.1,23,16.5,23L16.5,23z M19.5,26c-0.6,0-1,0.4-1,1c0,0.6,0.4,1,1,1c0.6,0,1-0.4,1-1C20.5,26.4,20.1,26,19.5,26L19.5,26
	z M22.5,23c-0.6,0-1,0.4-1,1c0,0.6,0.4,1,1,1c0.6,0,1-0.4,1-1C23.5,23.4,23.1,23,22.5,23L22.5,23z"/>
</svg>
