<?xml version="1.0" encoding="utf-8"?>
<!-- Generator: Adobe Illustrator 21.0.0, SVG Export Plug-In . SVG Version: 6.00 Build 0)  -->
<svg version="1.1" id="Layer_1" xmlns="http://www.w3.org/2000/svg" xmlns:xlink="http://www.w3.org/1999/xlink" x="0px" y="0px"
	 viewBox="0 0 32 32" style="enable-background:new 0 0 32 32;" xml:space="preserve">
<title>cloud-wind</title>
<path d="M6.6,8.6c-1.8,0.4-3.1,2-3.1,3.9c0,2.2,1.8,4,4,4h17c2.2,0,4-1.8,4-4c0-1.9-1.3-3.5-3-3.9l0,0c0-0.2,0-0.4,0-0.6
	c0-2.5-2-4.5-4.5-4.5c-1.2,0-2.3,0.5-3.1,1.3c-1-1.9-3-3.3-5.4-3.3c-3.3,0-6,2.7-6,6C6.5,7.9,6.5,8.2,6.6,8.6L6.6,8.6
	C6.6,8.6,6.6,8.6,6.6,8.6z M26.5,7.9c1.8,0.8,3,2.5,3,4.6c0,2.8-2.2,5-5,5h-17c-2.8,0-5-2.2-5-5c0-2.1,1.2-3.8,3-4.6l0,0
	c0-0.1,0-0.3,0-0.4c0-3.9,3.1-7,7-7c2.3,0,4.3,1.1,5.6,2.8C19,2.8,19.9,2.5,21,2.5C24,2.5,26.5,4.9,26.5,7.9L26.5,7.9L26.5,7.9
	L26.5,7.9z M29.5,22.5c0-2.2-1.8-4-4-4c-2.2,0-4,1.8-4,4h1c0-1.7,1.3-3,3-3c1.7,0,3,1.3,3,3c0,1.7-1.3,3-3,3h-23v1h23
	C27.7,26.5,29.5,24.7,29.5,22.5L29.5,22.5z M20.5,21.5c0-1.7-1.3-3-3-3c-1.7,0-3,1.3-3,3v0h1c0-1.1,0.9-2,2-2c1.1,0,2,0.9,2,2
	c0,1.1-0.9,2-2,2h-12v1h12C19.2,24.5,20.5,23.2,20.5,21.5L20.5,21.5z M24.5,29.5c0,1.1-0.9,2-2,2l0,0c-1.1,0-2-0.9-2-2v0h1
	c0,0.6,0.4,1,1,1l0,0c0.6,0,1-0.4,1-1l0,0c0-0.6-0.4-1-1-1h-14v-1h14C23.6,27.5,24.5,28.4,24.5,29.5L24.5,29.5L24.5,29.5z"/>
</svg>
