<?xml version="1.0" encoding="utf-8"?>
<!-- Generator: Adobe Illustrator 21.0.0, SVG Export Plug-In . SVG Version: 6.00 Build 0)  -->
<svg version="1.1" id="Layer_1" xmlns="http://www.w3.org/2000/svg" xmlns:xlink="http://www.w3.org/1999/xlink" x="0px" y="0px"
	 viewBox="0 0 32 32" style="enable-background:new 0 0 32 32;" xml:space="preserve">
<title>cloud-moon-lightning</title>
<path d="M16.6,21l1.5-4h-3.9l-2.3,6h2.6L13,27.1l6.1-6.1C19.1,21,16.6,21,16.6,21z M18.5,23h6c2.2,0,4-1.8,4-4c0-1.9-1.3-3.5-3-3.9
	l0,0c0-0.2,0-0.4,0-0.6c0-2.5-2-4.5-4.5-4.5c-1.2,0-2.3,0.5-3.1,1.3c-1-1.9-3-3.3-5.4-3.3c-3.3,0-6,2.7-6,6c0,0.4,0,0.7,0.1,1.1l0,0
	c-1.8,0.4-3.1,2-3.1,3.9c0,2.2,1.8,4,4,4h3.4l2.6-7h6L18,20h3.5C21.5,20,18.5,23,18.5,23z M13,24H7.5c-2.8,0-5-2.2-5-5
	c0-2.1,1.2-3.8,3-4.6c0-0.1,0-0.3,0-0.4c0-3.9,3.1-7,7-7c1.1,0,2.2,0.3,3.1,0.7c-0.1-0.4-0.1-0.8-0.1-1.2c0-2.6,1.8-4.7,4.2-5.3
	C20,1.1,20.4,1,20.8,1c-0.2,0.5-0.3,1-0.3,1.5C20.5,5,22.5,7,25,7c0.5,0,1-0.1,1.5-0.3c0,0.4-0.1,0.7-0.2,1.1c-0.3,1-0.8,2-1.6,2.7
	l0,0c1,1,1.7,2.4,1.7,3.9c1.8,0.8,3,2.5,3,4.6c0,2.8-2.2,5-5,5h-7l-7,7L13,24L13,24z M24,9.9c0.6-0.5,1-1.1,1.3-1.9
	c-0.1,0-0.2,0-0.2,0c-3,0-5.5-2.5-5.5-5.5c0-0.1,0-0.2,0-0.2c-1.8,0.6-3,2.3-3,4.2c0,0.8,0.2,1.6,0.6,2.2c0.4,0.3,0.7,0.7,1,1.1
	C19,9.3,19.9,9,21,9C22.1,9,23.1,9.3,24,9.9L24,9.9L24,9.9L24,9.9z"/>
</svg>
