<?xml version="1.0" encoding="utf-8"?>
<!-- Generator: Adobe Illustrator 21.0.0, SVG Export Plug-In . SVG Version: 6.00 Build 0)  -->
<svg version="1.1" id="Layer_1" xmlns="http://www.w3.org/2000/svg" xmlns:xlink="http://www.w3.org/1999/xlink" x="0px" y="0px"
	 viewBox="0 0 32 32" style="enable-background:new 0 0 32 32;" xml:space="preserve">
<title>cloud</title>
<path d="M6.6,15.6c-1.8,0.4-3.1,2-3.1,3.9c0,2.2,1.8,4,4,4h17c2.2,0,4-1.8,4-4c0-1.9-1.3-3.4-3-3.9l0,0c-0.2-2.3-2.1-4.1-4.5-4.1
	c-1.1,0-2.1,0.4-2.8,1c-0.8-2.3-3-4-5.7-4c-3.3,0-6,2.7-6,6C6.5,14.9,6.5,15.2,6.6,15.6C6.6,15.6,6.6,15.6,6.6,15.6z M26.4,14.9
	c1.8,0.7,3.1,2.5,3.1,4.6c0,2.8-2.2,5-5,5h-17c-2.8,0-5-2.2-5-5c0-2.1,1.2-3.8,3-4.6l0,0c0-0.1,0-0.3,0-0.4c0-3.9,3.1-7,7-7
	c2.6,0,4.9,1.4,6.1,3.6c0.7-0.4,1.5-0.6,2.4-0.6C23.6,10.5,25.9,12.4,26.4,14.9L26.4,14.9L26.4,14.9L26.4,14.9z"/>
</svg>
