<?xml version="1.0" encoding="utf-8"?>
<!-- Generator: Adobe Illustrator 21.0.0, SVG Export Plug-In . SVG Version: 6.00 Build 0)  -->
<svg version="1.1" id="Layer_1" xmlns="http://www.w3.org/2000/svg" xmlns:xlink="http://www.w3.org/1999/xlink" x="0px" y="0px"
	 viewBox="0 0 32 32" style="enable-background:new 0 0 32 32;" xml:space="preserve">
<title>clouds</title>
<path d="M26.5,19L26.5,19L26.5,19c0.6,0.8,1,1.9,1,3c0,2.8-2.2,5-5,5h-17c-2.8,0-5-2.2-5-5c0-2.1,1.2-3.8,3-4.6c0-0.1,0-0.3,0-0.4
	c0-3.9,3.1-7,7-7c0.8,0,1.5,0.1,2.2,0.3C13.2,8.4,14.9,7,17,7c0.8,0,1.5,0.2,2.1,0.5C20,6,21.6,5,23.5,5c2.8,0,5,2.2,5,5
	c0,0.4,0,0.7-0.1,1.1c1.8,0.4,3.1,2,3.1,3.9c0,2.2-1.8,4-4,4H26.5L26.5,19z M25.5,18h2c1.7,0,3-1.3,3-3c0-1.7-1.3-3-3-3H27
	c0.3-0.6,0.5-1.3,0.5-2c0-2.2-1.8-4-4-4c-1.9,0-3.5,1.3-3.9,3.1C19,8.4,18,8,17,8c-1.7,0-3.1,1.2-3.4,2.7c1,0.5,1.9,1.2,2.5,2.1
	C17,12.3,17.9,12,19,12c3,0,5.5,2.4,5.5,5.4C24.9,17.6,25.2,17.8,25.5,18L25.5,18L25.5,18L25.5,18z M1.5,22c0,2.2,1.8,4,4,4h17
	c2.2,0,4-1.8,4-4c0-1.9-1.3-3.5-3-3.9c0-0.2,0-0.4,0-0.6c0-2.5-2-4.5-4.5-4.5c-1.2,0-2.3,0.5-3.1,1.3c-1-1.9-3-3.3-5.4-3.3
	c-3.3,0-6,2.7-6,6c0,0.4,0,0.7,0.1,1.1C2.8,18.5,1.5,20.1,1.5,22C1.5,22,1.5,22,1.5,22z"/>
</svg>
