<?xml version="1.0" encoding="utf-8"?>
<!-- Generator: Adobe Illustrator 21.0.0, SVG Export Plug-In . SVG Version: 6.00 Build 0)  -->
<svg version="1.1" id="Layer_1" xmlns="http://www.w3.org/2000/svg" xmlns:xlink="http://www.w3.org/1999/xlink" x="0px" y="0px"
	 viewBox="0 0 32 32" style="enable-background:new 0 0 32 32;" xml:space="preserve">
<title>47</title>
<desc>Created with Sketch.</desc>
<path d="M30.8,17.3c-0.5-0.7-1.2-1.3-2-1.7c-0.5,0.5-1,0.9-1.6,1.2c1.8,0.6,3.1,2.3,3.1,4.2c0,2.5-2,4.4-4.4,4.4h-2l0,0H7.5
	c-3.1,0-5.7-2.6-5.7-5.7c0-2.3,1.4-4.4,3.6-5.3l1-0.4l0.1-1.1c0.2-3.6,3.3-6.4,6.9-6.4c1.4,0,2.8,0.4,3.9,1.2
	c0.2-0.6,0.5-1.1,0.9-1.6c-1.4-0.9-3.1-1.4-4.8-1.4c-4.5,0-8.3,3.5-8.7,8C1.8,14,0,16.7,0,19.7c0,4.1,3.3,7.5,7.5,7.5h17.2h0.5h0.4
	c0.1,0,0.1,0,0.2,0c3.4,0,6.2-2.8,6.2-6.2C32,19.6,31.6,18.3,30.8,17.3z"/>
<path d="M23.9,9.8L23.9,9.8L23.9,9.8L23.9,9.8z"/>
<path d="M23.8,5.3c-1.2,0-2.4,0.4-3.3,1.2c-0.5,0.4-0.9,0.9-1.2,1.4c-0.5,0.8-0.7,1.7-0.7,2.7c0,2.9,2.3,5.2,5.2,5.2
	c1.5,0,2.9-0.6,3.8-1.7c0.5-0.5,0.9-1.2,1.1-1.9c0.2-0.5,0.3-1.1,0.3-1.7C29,7.6,26.7,5.3,23.8,5.3z M25.9,13.3l-1.7-1.7l-0.2-0.2
	l-2,2l-0.7-0.7l2-2l-2-2L22,7.9l1.3,1.3L24,9.9l2-2l0.7,0.7l-2,2l1.4,1.4l0.6,0.6L25.9,13.3z"/>
</svg>
